<svg viewBox="0 0 640 360" xmlns="http://www.w3.org/2000/svg" role="img" aria-label="Webcam studio traffic growth and multi-model management dashboard">
  <!-- 4 room/model panels -->
  <g stroke="#57534E" stroke-width="2.5" fill="none">
    <rect x="330" y="60" width="120" height="90" rx="8"/>
    <rect x="470" y="60" width="120" height="90" rx="8"/>
    <rect x="330" y="170" width="120" height="90" rx="8"/>
    <rect x="470" y="170" width="120" height="90" rx="8"/>
  </g>
  <circle cx="390" cy="105" r="18" fill="none" stroke="#FAFAF9" stroke-width="3"/>
  <circle cx="530" cy="105" r="18" fill="none" stroke="#FAFAF9" stroke-width="3"/>
  <circle cx="390" cy="215" r="18" fill="none" stroke="#FAFAF9" stroke-width="3"/>
  <circle cx="530" cy="215" r="18" fill="none" stroke="#FAFAF9" stroke-width="3"/>
  <g fill="#D97706">
    <circle cx="342" cy="72" r="5"/>
    <circle cx="482" cy="72" r="5"/>
    <circle cx="342" cy="182" r="5"/>
    <circle cx="482" cy="182" r="5"/>
  </g>
  <!-- traffic flow arrows converging from left -->
  <g stroke="#F59E0B" stroke-width="4" fill="none" stroke-linecap="round">
    <path d="M50 90 C160 90 220 100 328 100"/>
    <path d="M50 150 C160 150 220 130 328 115"/>
    <path d="M50 210 C160 210 220 210 328 215"/>
    <path d="M50 270 C160 270 220 220 328 220"/>
  </g>
  <g fill="#F59E0B">
    <circle cx="50" cy="90" r="6"/>
    <circle cx="50" cy="150" r="6"/>
    <circle cx="50" cy="210" r="6"/>
    <circle cx="50" cy="270" r="6"/>
  </g>
  <!-- arrowheads -->
  <g fill="#F59E0B">
    <path d="M318 96 L332 100 L318 106 Z"/>
    <path d="M318 111 L332 115 L318 121 Z"/>
    <path d="M318 211 L332 215 L318 221 Z"/>
    <path d="M318 216 L332 220 L318 226 Z"/>
  </g>
</svg>
